<?xml version="1.0" encoding="UTF-8" standalone="no"?>
<svg
   xmlns:dc="http://purl.org/dc/elements/1.1/"
   xmlns:cc="http://creativecommons.org/ns#"
   xmlns:rdf="http://www.w3.org/1999/02/22-rdf-syntax-ns#"
   xmlns:svg="http://www.w3.org/2000/svg"
   xmlns="http://www.w3.org/2000/svg"
   width="100pt"
   height="100pt"
   viewBox="0 0 100 100"
   version="1.1"
   id="svg862">
  <defs
     id="defs856" />
  <metadata
     id="metadata859">
    <rdf:RDF>
      <cc:Work
         rdf:about="">
        <dc:format>image/svg+xml</dc:format>
        <dc:type
           rdf:resource="http://purl.org/dc/dcmitype/StillImage" />
        <dc:title></dc:title>
      </cc:Work>
    </rdf:RDF>
  </metadata>
  <g
     id="layer1">
    <path
       style="opacity:1;fill:#9a588c;fill-opacity:1;stroke:none;stroke-width:0.26458300000000001px;stroke-linecap:butt;stroke-linejoin:miter;stroke-opacity:1"
       d="m 3.6979169,65.214545 c 0,0 -1.322917,-7.9375 3.9687501,-13.229167 5.291667,-5.291667 19.84375,-2.645833 31.75,-10.583333 0,0 -7.9375,-1.322917 -6.614584,-7.9375 1.322917,-6.614584 6.614584,-5.291667 6.614584,-9.260417 0,-3.96875 -9.260417,-6.614584 -9.260417,-9.260417 0,-2.645833 -1.691773,-13.2291669 19.84375,-13.2291669 21.535525,0 19.84375,10.5833339 19.84375,13.2291669 0,2.645833 -9.260417,5.291667 -9.260417,9.260417 0,3.96875 5.291667,2.645833 6.614584,9.260417 1.322916,6.614583 -6.614584,7.9375 -6.614584,7.9375 11.90625,7.9375 26.458334,5.291666 31.75,10.583333 5.291667,5.291667 3.96875,13.229167 3.96875,13.229167 H 50 Z"
       id="path196" />
    <g
       id="g1518">
      <rect
         y="68.73555"
         x="3.7992134"
         height="7.3887372"
         width="92.401573"
         id="rect1451"
         style="fill:#9a588c;fill-opacity:1;stroke:none;stroke-width:1.46324;stroke-linecap:round;stroke-linejoin:round" />
      <rect
         style="fill:#9a588c;fill-opacity:1;stroke:none;stroke-width:1.46324;stroke-linecap:round;stroke-linejoin:round"
         id="rect1451-1"
         width="92.401573"
         height="7.3887372"
         x="3.7992134"
         y="79.513" />
      <rect
         y="90.290451"
         x="3.7992134"
         height="7.3887372"
         width="92.401573"
         id="rect1451-1-7"
         style="fill:#9a588c;fill-opacity:1;stroke:none;stroke-width:1.46324;stroke-linecap:round;stroke-linejoin:round" />
    </g>
  </g>
</svg>
